<svg width="695" height="556" viewBox="0 0 695 556" fill="none" xmlns="http://www.w3.org/2000/svg">
<path d="M677.625 451.75H414.329C413.525 473.262 398.354 486.5 378.775 486.5H312.75C292.454 486.5 276.892 467.529 277.164 451.75H17.375C7.81875 451.75 0 459.569 0 469.125V486.5C0 524.725 31.275 556 69.5 556H625.5C663.725 556 695 524.725 695 486.5V469.125C695 459.569 687.181 451.75 677.625 451.75ZM625.5 52.125C625.5 23.4563 602.044 0 573.375 0H121.625C92.9563 0 69.5 23.4563 69.5 52.125V417H625.5V52.125ZM556 347.5H139V69.5H556V347.5Z" fill="white"/>
<path d="M345.002 183.144C314.293 183.144 270.753 230.549 270.753 260.472C270.753 273.949 281.121 282 298.496 282C317.383 282 329.854 272.315 345.002 272.315C360.281 272.315 372.787 282 391.508 282C408.883 282 419.251 273.949 419.251 260.472C419.251 230.549 375.711 183.144 345.002 183.144ZM288.047 178.275C284.025 164.895 271.634 156.229 260.373 158.917C249.112 161.605 243.246 174.63 247.268 188.01C251.289 201.39 263.68 210.056 274.941 207.368C286.202 204.68 292.068 191.655 288.047 178.275ZM320.809 170.251C332.774 167.107 338.76 150.966 334.182 134.199C329.603 117.432 316.192 106.392 304.227 109.536C292.262 112.679 286.275 128.82 290.854 145.587C295.433 162.354 308.848 173.398 320.809 170.251ZM429.627 158.921C418.366 156.233 405.979 164.899 401.953 178.279C397.932 191.659 403.798 204.684 415.059 207.372C426.32 210.059 438.707 201.394 442.732 188.014C446.754 174.634 440.888 161.609 429.627 158.921ZM369.195 170.251C381.16 173.394 394.571 162.354 399.15 145.587C403.728 128.82 397.742 112.683 385.777 109.536C373.812 106.388 360.401 117.432 355.822 134.199C351.244 150.966 357.23 167.107 369.195 170.251Z" fill="white"/>
</svg>
